<svg width="15" height="8" viewBox="0 0 15 8" fill="none" xmlns="http://www.w3.org/2000/svg">
<path d="M13.7932 0.802204C13.7051 0.71337 13.6002 0.642859 13.4847 0.594742C13.3692 0.546624 13.2454 0.521851 13.1202 0.521851C12.9951 0.521851 12.8712 0.546624 12.7557 0.594742C12.6402 0.642859 12.5354 0.71337 12.4473 0.802204L8.10644 5.14306C8.01833 5.2319 7.91351 5.30241 7.79801 5.35052C7.68251 5.39864 7.55863 5.42342 7.43351 5.42342C7.30839 5.42342 7.18451 5.39864 7.06902 5.35052C6.95352 5.30241 6.84869 5.2319 6.76058 5.14306L2.41972 0.802204C2.33161 0.71337 2.22678 0.642859 2.11128 0.594742C1.99579 0.546624 1.87191 0.521851 1.74679 0.521851C1.62167 0.521851 1.49779 0.546624 1.38229 0.594742C1.26679 0.642859 1.16197 0.71337 1.07386 0.802204C0.897331 0.979783 0.798248 1.22 0.798248 1.47039C0.798248 1.72078 0.897331 1.961 1.07386 2.13858L5.4242 6.48892C5.95734 7.02139 6.68002 7.32047 7.43351 7.32047C8.18701 7.32047 8.90969 7.02139 9.44282 6.48892L13.7932 2.13858C13.9697 1.961 14.0688 1.72078 14.0688 1.47039C14.0688 1.22 13.9697 0.979783 13.7932 0.802204Z" fill="#58595F"/>
</svg>
