<svg width="8" height="14" viewBox="0 0 8 14" fill="none" xmlns="http://www.w3.org/2000/svg">
<path d="M7.48461 1.45802C7.54476 1.39438 7.59178 1.31951 7.62299 1.23769C7.6542 1.15587 7.66899 1.0687 7.66651 0.981167C7.66403 0.893633 7.64434 0.807443 7.60855 0.727519C7.57277 0.647595 7.52159 0.575502 7.45794 0.515357C7.3943 0.455212 7.31943 0.408191 7.23761 0.376981C7.15579 0.345771 7.06862 0.330981 6.98109 0.333458C6.89355 0.335934 6.80736 0.355627 6.72744 0.391413C6.64751 0.427199 6.57542 0.478376 6.51528 0.542024L0.84861 6.54202C0.731586 6.6658 0.666382 6.82968 0.666382 7.00002C0.666382 7.17036 0.731586 7.33424 0.84861 7.45802L6.51528 13.4587C6.57503 13.5237 6.6471 13.5763 6.72732 13.6132C6.80754 13.6502 6.8943 13.6708 6.98256 13.6739C7.07082 13.6771 7.15883 13.6626 7.24147 13.6315C7.32411 13.6003 7.39973 13.553 7.46394 13.4924C7.52816 13.4318 7.57968 13.359 7.61553 13.2783C7.65137 13.1975 7.67082 13.1105 7.67274 13.0222C7.67466 12.9339 7.65902 12.8461 7.62673 12.7639C7.59443 12.6817 7.54612 12.6067 7.48461 12.5434L2.24994 7.00002L7.48461 1.45802Z" fill="#323232"/>
</svg>
