<svg width="16" height="16" viewBox="0 0 16 16" fill="none" xmlns="http://www.w3.org/2000/svg">
<path fill-rule="evenodd" clip-rule="evenodd" d="M1.40666 7.62502C2.63616 4.60547 5.17282 2.66669 8 2.66669C10.8272 2.66669 13.3638 4.60547 14.5933 7.62502C14.6911 7.86512 14.6911 8.13492 14.5933 8.37502C13.3638 11.3946 10.8272 13.3334 8 13.3334C5.17282 13.3334 2.63616 11.3946 1.40666 8.37502C1.30889 8.13492 1.30889 7.86512 1.40666 7.62502ZM8 12.0998C10.2794 12.0998 12.3692 10.5245 13.4333 8.00002C12.3692 5.47552 10.2794 3.90025 8 3.90025C5.72063 3.90025 3.63083 5.47552 2.56672 8.00002C3.63083 10.5245 5.72063 12.0998 8 12.0998ZM8 10.4309C6.68082 10.4309 5.61141 9.34254 5.61141 8.00002C5.61141 6.6575 6.68082 5.56918 8 5.56918C9.31918 5.56918 10.3886 6.6575 10.3886 8.00002C10.3886 9.34254 9.31918 10.4309 8 10.4309ZM8 9.1973C8.64975 9.1973 9.17647 8.66126 9.17647 8.00002C9.17647 7.33878 8.64975 6.80274 8 6.80274C7.35025 6.80274 6.82353 7.33878 6.82353 8.00002C6.82353 8.66126 7.35025 9.1973 8 9.1973Z" fill="#92929D"/>
</svg>
