<svg width="28" height="28" viewBox="0 0 28 28" fill="none" xmlns="http://www.w3.org/2000/svg">
<path d="M28 25V8.60002C28 6.94316 26.6569 5.60002 25 5.60002H4.2V2.80002H0V25C0 26.6569 1.34315 28 3 28H25C26.6569 28 28 26.6569 28 25Z" fill="#0BB885"/>
<path d="M19.6 16.8C19.6 15.2536 20.8536 14 22.4 14H28V19.6H22.4C20.8536 19.6 19.6 18.3464 19.6 16.8Z" fill="#98FFE0"/>
<path d="M2.8 0C1.2536 0 0 1.2536 0 2.8C0 4.3464 1.2536 5.6 2.8 5.6H23.8C24.2909 5.6 24.7621 5.68422 25.2 5.83899V1.4C25.2 0.626801 24.5732 0 23.8 0H2.8Z" fill="#98FFE0"/>
</svg>
