<svg width="29" height="28" viewBox="0 0 29 28" fill="none" xmlns="http://www.w3.org/2000/svg">
<g clip-path="url(#clip0_239_2)">
<path d="M25.5 2.80005H3.5C1.84315 2.80005 0.5 4.14319 0.5 5.80005V25C0.5 26.6569 1.84315 28 3.5 28H25.5C27.1569 28 28.5 26.6569 28.5 25V5.80005C28.5 4.14319 27.1569 2.80005 25.5 2.80005Z" fill="#1C243F"/>
<path d="M0.5 5.80005C0.5 4.1432 1.84315 2.80005 3.5 2.80005H25.5C27.1569 2.80005 28.5 4.14319 28.5 5.80005V11.2H0.5V5.80005Z" fill="#98FFE0"/>
<path fill-rule="evenodd" clip-rule="evenodd" d="M7.50004 0C8.27324 0 8.90004 0.626801 8.90004 1.4V4.2C8.90004 4.9732 8.27324 5.6 7.50004 5.6C6.72684 5.6 6.10004 4.9732 6.10004 4.2V1.4C6.10004 0.626801 6.72684 0 7.50004 0Z" fill="#1C243F"/>
<path fill-rule="evenodd" clip-rule="evenodd" d="M21.5 0C22.2732 0 22.9 0.626801 22.9 1.4V4.2C22.9 4.9732 22.2732 5.6 21.5 5.6C20.7268 5.6 20.1 4.9732 20.1 4.2V1.4C20.1 0.626801 20.7268 0 21.5 0Z" fill="#1C243F"/>
</g>
<defs>
<clipPath id="clip0_239_2">
<rect width="29" height="28" fill="white"/>
</clipPath>
</defs>
</svg>
