<svg width="29" height="28" viewBox="0 0 29 28" fill="none" xmlns="http://www.w3.org/2000/svg">
<rect x="0.5" y="2.80002" width="28" height="25.2" rx="3" fill="#0BB885"/>
<path d="M0.5 5.80002C0.5 4.14317 1.84315 2.80002 3.5 2.80002H25.5C27.1569 2.80002 28.5 4.14316 28.5 5.80002V11.2H0.5V5.80002Z" fill="#98FFE0"/>
<path fill-rule="evenodd" clip-rule="evenodd" d="M7.50004 0C8.27324 0 8.90004 0.626801 8.90004 1.4V4.2C8.90004 4.9732 8.27324 5.6 7.50004 5.6C6.72684 5.6 6.10004 4.9732 6.10004 4.2V1.4C6.10004 0.626801 6.72684 0 7.50004 0Z" fill="#0BB885"/>
<path fill-rule="evenodd" clip-rule="evenodd" d="M21.5 0C22.2732 0 22.9 0.626801 22.9 1.4V4.2C22.9 4.9732 22.2732 5.6 21.5 5.6C20.7268 5.6 20.1 4.9732 20.1 4.2V1.4C20.1 0.626801 20.7268 0 21.5 0Z" fill="#0BB885"/>
</svg>
