<svg width="20" height="20" viewBox="0 0 20 20" fill="none" xmlns="http://www.w3.org/2000/svg">
<path d="M6.4663 4.16265C6.96327 3.88492 7.38555 3.46542 7.57233 2.92762L7.77508 2.34384C8.05449 1.53933 8.81272 1 9.66438 1H10.3357C11.1873 1 11.9456 1.53933 12.225 2.34384L12.4277 2.92763C12.6145 3.46542 13.0368 3.88492 13.5337 4.16265C14.0136 4.43081 14.5618 4.56491 15.1012 4.45897L15.8655 4.30886C16.6916 4.14662 17.5308 4.51904 17.9648 5.24043L18.2265 5.67546C18.6848 6.43743 18.5851 7.41051 17.9816 8.06362L17.556 8.52433C17.1896 8.92091 17.0324 9.46004 17.0324 9.99998C17.0324 10.5399 17.1896 11.079 17.556 11.4756L17.9816 11.9363C18.5851 12.5894 18.6848 13.5625 18.2264 14.3245L17.9648 14.7595C17.5308 15.4809 16.6916 15.8533 15.8655 15.6911L15.1013 15.541C14.5619 15.4351 14.0136 15.5692 13.5338 15.8373C13.0368 16.1151 12.6145 16.5346 12.4277 17.0724L12.225 17.6562C11.9456 18.4607 11.1873 19 10.3357 19H9.66438C8.81272 19 8.05449 18.4607 7.77508 17.6562L7.57234 17.0724C7.38555 16.5346 6.96326 16.1151 6.46628 15.8373C5.98639 15.5692 5.43814 15.435 4.89871 15.541L4.1345 15.6911C3.30843 15.8533 2.46919 15.4809 2.03524 14.7595L1.77355 14.3245C1.31519 13.5625 1.41495 12.5894 2.01837 11.9363L2.44409 11.4755C2.81048 11.079 2.96768 10.5399 2.96768 9.99998C2.96768 9.46007 2.81048 8.92096 2.44409 8.5244L2.01837 8.06362C1.41495 7.41051 1.31519 6.43742 1.77355 5.67546L2.03524 5.24043C2.46919 4.51903 3.30843 4.14662 4.1345 4.30886L4.89881 4.45897C5.43822 4.56491 5.98644 4.43082 6.4663 4.16265Z" fill="#0BB885"/>
<path fill-rule="evenodd" clip-rule="evenodd" d="M9.9998 12.4545C11.4122 12.4545 12.5572 11.3556 12.5572 9.99999C12.5572 8.64438 11.4122 7.54544 9.9998 7.54544C8.58738 7.54544 7.44238 8.64438 7.44238 9.99999C7.44238 11.3556 8.58738 12.4545 9.9998 12.4545Z" fill="#98FFE0"/>
</svg>
