<svg width="20" height="20" viewBox="0 0 20 20" fill="none" xmlns="http://www.w3.org/2000/svg">
<circle cx="10" cy="14.8" r="3.2" fill="#98FFE0"/>
<path d="M16.8686 14.8H3.12326C2.5029 14.8 2 14.2971 2 13.6767C2 13.3721 2.12376 13.0805 2.34291 12.8688L3.04345 12.1922C3.43514 11.8139 3.65563 11.2922 3.654 10.7476L3.64694 8.39568C3.63635 4.86656 6.49431 2 10.0235 2C13.5451 2 16.4 4.85487 16.4 8.37653L16.4 10.7716C16.4 11.302 16.6107 11.8107 16.9858 12.1858L17.6686 12.8686C17.8808 13.0808 18 13.3686 18 13.6686C18 14.2935 17.4935 14.8 16.8686 14.8Z" fill="#0BB885"/>
</svg>
