<svg width="16" height="18" viewBox="0 0 16 18" fill="none" xmlns="http://www.w3.org/2000/svg">
<path d="M7.96205 0C9.42783 0 10.6161 1.18824 10.6161 2.65402V15.0394C10.6161 16.5052 9.42783 17.6935 7.96205 17.6935H2.65402C1.18824 17.6935 0 16.5052 0 15.0394V2.65402C0 1.18824 1.18824 0 2.65402 0H7.96205Z" fill="#0BB885"/>
<path d="M13.011 5.12481C12.6655 4.77932 12.1053 4.77932 11.7598 5.12481C11.4143 5.47029 11.4143 6.03044 11.7598 6.37592L13.346 7.96205H5.30801C4.81942 7.96205 4.42334 8.35813 4.42334 8.84672C4.42334 9.33531 4.81942 9.73139 5.30801 9.73139H13.346L11.7598 11.3175C11.4143 11.663 11.4143 12.2231 11.7598 12.5686C12.1053 12.9141 12.6655 12.9141 13.011 12.5686L15.4817 10.0978C16.1727 9.40686 16.1727 8.28657 15.4817 7.5956L13.011 5.12481Z" fill="#98FFE0"/>
</svg>
