<svg width="29" height="25" viewBox="0 0 29 25" fill="none" xmlns="http://www.w3.org/2000/svg">
<g clip-path="url(#clip0_239_7)">
<path fill-rule="evenodd" clip-rule="evenodd" d="M15.7727 22.5H19.5909C20.2938 22.5 20.8636 23.0597 20.8636 23.75C20.8636 24.4404 20.2938 25 19.5909 25H9.40908C8.70617 25 8.13635 24.4404 8.13635 23.75C8.13635 23.0597 8.70617 22.5 9.40908 22.5H13.2273V16.25H15.7727V22.5Z" fill="#98FFE0"/>
<path fill-rule="evenodd" clip-rule="evenodd" d="M5.59091 5H3.04545V7.5C3.04545 8.88071 4.18509 9.99997 5.59091 9.99997V5ZM3.04545 2.5C1.63964 2.5 0.5 3.61929 0.5 5V7.5C0.5 10.2615 2.77928 12.5 5.59091 12.5H8.13636V2.5H3.04545Z" fill="#98FFE0"/>
<path fill-rule="evenodd" clip-rule="evenodd" d="M23.4091 5H25.9545V7.5C25.9545 8.88071 24.8149 9.99997 23.4091 9.99997V5ZM25.9545 2.5C27.3604 2.5 28.5 3.61929 28.5 5V7.5C28.5 10.2615 26.2207 12.5 23.4091 12.5H20.8636V2.5H25.9545Z" fill="#98FFE0"/>
<path d="M5.59088 2C5.59088 0.895431 6.48631 0 7.59088 0H21.4091C22.5136 0 23.4091 0.895431 23.4091 2V10.75C23.4091 15.1683 19.8273 18.75 15.4091 18.75H13.5909C9.17261 18.75 5.59088 15.1683 5.59088 10.75V2Z" fill="#1C243F"/>
</g>
<defs>
<clipPath id="clip0_239_7">
<rect width="29" height="25" fill="white"/>
</clipPath>
</defs>
</svg>
