<svg width="40" height="40" viewBox="0 0 40 40" fill="none" xmlns="http://www.w3.org/2000/svg">
<g clip-path="url(#clip0_16_466)">
<path d="M5.85991 34.14C3.94971 32.295 2.42607 30.0881 1.37789 27.6481C0.329706 25.208 -0.222018 22.5836 -0.245094 19.928C-0.268171 17.2724 0.237863 14.6388 1.24348 12.1809C2.2491 9.72297 3.73416 7.48993 5.61201 5.61208C7.48987 3.73422 9.72291 2.24916 12.1808 1.24354C14.6388 0.237924 17.2724 -0.26811 19.9279 -0.245033C22.5835 -0.221957 25.2079 0.329767 27.648 1.37795C30.0881 2.42613 32.295 3.94977 34.1399 5.85998C37.7831 9.63202 39.799 14.6841 39.7534 19.928C39.7078 25.1719 37.6044 30.1882 33.8963 33.8963C30.1881 37.6045 25.1719 39.7079 19.9279 39.7535C14.684 39.799 9.63196 37.7831 5.85991 34.14ZM8.67991 31.32C11.6822 34.3222 15.7541 36.0089 19.9999 36.0089C24.2457 36.0089 28.3177 34.3222 31.3199 31.32C34.3222 28.3177 36.0088 24.2458 36.0088 20C36.0088 15.7542 34.3222 11.6822 31.3199 8.67998C28.3177 5.67772 24.2457 3.99108 19.9999 3.99108C15.7541 3.99108 11.6822 5.67772 8.67991 8.67998C5.67766 11.6822 3.99102 15.7542 3.99102 20C3.99102 24.2458 5.67766 28.3177 8.67991 31.32ZM28.4799 14.34L22.8199 20L28.4799 25.66L25.6599 28.48L19.9999 22.82L14.3399 28.48L11.5199 25.66L17.1799 20L11.5199 14.34L14.3399 11.52L19.9999 17.18L25.6599 11.52L28.4799 14.34Z" fill="#F01414"/>
</g>
<defs>
<clipPath id="clip0_16_466">
<rect width="40" height="40" fill="white"/>
</clipPath>
</defs>
</svg>
