<svg width="17" height="20" viewBox="0 0 17 20" fill="none" xmlns="http://www.w3.org/2000/svg">
<path fill-rule="evenodd" clip-rule="evenodd" d="M1 3C1 1.34315 2.34315 0 4 0H14C15.6569 0 17 1.34315 17 3V17C17 18.6569 15.6569 20 14 20H4C2.34315 20 1 18.6569 1 17C1 16.4477 1.44772 16 2 16C2.55228 16 3 16.4477 3 17C3 17.5523 3.44772 18 4 18H14C14.5523 18 15 17.5523 15 17V3C15 2.44772 14.5523 2 14 2H4C3.44772 2 3 2.44772 3 3C3 3.55228 2.55228 4 2 4C1.44772 4 1 3.55228 1 3ZM5.70711 5.29289C6.09763 5.68342 6.09763 6.31658 5.70711 6.70711L3.41421 9L12 9C12.5523 9 13 9.44771 13 10C13 10.5523 12.5523 11 12 11L3.41421 11L5.70711 13.2929C6.09763 13.6834 6.09763 14.3166 5.70711 14.7071C5.31658 15.0976 4.68342 15.0976 4.29289 14.7071L0.292893 10.7071C-0.0976311 10.3166 -0.0976311 9.68342 0.292893 9.29289L4.29289 5.29289C4.68342 4.90237 5.31658 4.90237 5.70711 5.29289Z" fill="#F75757"/>
</svg>
