<svg width="31" height="30" viewBox="0 0 31 30" fill="none" xmlns="http://www.w3.org/2000/svg">
<path d="M30.16 10.11C30.1601 8.11967 29.5591 6.17573 28.4357 4.53279C27.3123 2.88985 25.7188 1.6245 23.8641 0.9025C22.0094 0.18049 19.9798 0.0354902 18.0413 0.48648C16.1027 0.93747 14.3456 1.96343 13 3.42997H0.52002V29.77H26.87V17.46C27.9042 16.535 28.7318 15.4023 29.2987 14.1358C29.8656 12.8693 30.1591 11.4976 30.16 10.11ZM25.09 10.11C25.092 11.0637 24.811 11.9966 24.2826 12.7906C23.7541 13.5845 23.0021 14.2039 22.1215 14.5702C21.2409 14.9366 20.2715 15.0335 19.3358 14.8486C18.4002 14.6638 17.5404 14.2055 16.8653 13.5318C16.1902 12.8581 15.7302 11.9993 15.5434 11.064C15.3566 10.1288 15.4515 9.15907 15.816 8.27777C16.1805 7.39643 16.7983 6.64306 17.5911 6.11299C18.384 5.58292 19.3163 5.29998 20.27 5.29997C21.5466 5.29997 22.7711 5.80642 23.6747 6.70818C24.5784 7.60994 25.0874 8.83337 25.09 10.11ZM21.8 24.7H5.59002V8.49997H10.53C10.4346 9.03147 10.3844 9.57007 10.38 10.11C10.3827 12.7322 11.4255 15.2462 13.2797 17.1004C15.1338 18.9545 17.6478 19.9974 20.27 20C20.7827 19.9973 21.2943 19.9538 21.8 19.87V24.7Z" fill="#FF814A"/>
</svg>
