<svg width="27" height="27" viewBox="0 0 27 27" fill="none" xmlns="http://www.w3.org/2000/svg">
<path d="M0.547841 0.571233C0.898729 0.220451 1.37457 0.0233925 1.87073 0.0233925C2.36688 0.0233925 2.84273 0.220451 3.19361 0.571233L13.0975 10.4751L23.0014 0.571233C23.174 0.392522 23.3804 0.249975 23.6087 0.151911C23.837 0.053847 24.0825 0.00222959 24.331 7.06482e-05C24.5794 -0.00208829 24.8258 0.045254 25.0558 0.139336C25.2857 0.233418 25.4946 0.372355 25.6703 0.54804C25.846 0.723725 25.985 0.93264 26.079 1.1626C26.1731 1.39255 26.2205 1.63894 26.2183 1.88739C26.2161 2.13583 26.1645 2.38136 26.0665 2.60965C25.9684 2.83793 25.8259 3.0444 25.6471 3.21701L15.7433 13.1209L25.6471 23.0248C25.988 23.3777 26.1766 23.8503 26.1723 24.3409C26.1681 24.8315 25.9713 25.3008 25.6243 25.6477C25.2774 25.9947 24.8081 26.1914 24.3175 26.1957C23.8269 26.2 23.3543 26.0114 23.0014 25.6705L13.0975 15.7667L3.19361 25.6705C2.84072 26.0114 2.36806 26.2 1.87746 26.1957C1.38686 26.1914 0.917556 25.9947 0.570634 25.6477C0.223712 25.3008 0.0269266 24.8315 0.0226634 24.3409C0.0184001 23.8503 0.207 23.3777 0.547841 23.0248L10.4517 13.1209L0.547841 3.21701C0.197059 2.86612 0 2.39028 0 1.89412C0 1.39796 0.197059 0.922122 0.547841 0.571233Z" fill="white"/>
</svg>
