<svg width="8" height="14" viewBox="0 0 8 14" fill="none" xmlns="http://www.w3.org/2000/svg">
<path d="M0.51539 12.542C0.455244 12.6056 0.408224 12.6805 0.377014 12.7623C0.345804 12.8441 0.331014 12.9313 0.33349 13.0188C0.335967 13.1064 0.35566 13.1926 0.391446 13.2725C0.427231 13.3524 0.478409 13.4245 0.542056 13.4846C0.605703 13.5448 0.680574 13.5918 0.762394 13.623C0.844213 13.6542 0.931378 13.669 1.01891 13.6665C1.10645 13.6641 1.19264 13.6444 1.27256 13.6086C1.35249 13.5728 1.42458 13.5216 1.48472 13.458L7.15139 7.45798C7.26841 7.3342 7.33362 7.17032 7.33362 6.99998C7.33362 6.82964 7.26841 6.66576 7.15139 6.54198L1.48472 0.541309C1.42498 0.476267 1.3529 0.423747 1.27268 0.386796C1.19246 0.349847 1.1057 0.329205 1.01744 0.326069C0.929177 0.322934 0.841171 0.337366 0.758533 0.368531C0.675895 0.399694 0.600273 0.446967 0.53606 0.507603C0.471846 0.56824 0.42032 0.641031 0.384476 0.721749C0.348632 0.802467 0.329184 0.889502 0.327261 0.9778C0.325338 1.0661 0.340978 1.1539 0.373274 1.2361C0.40557 1.3183 0.453878 1.39327 0.515391 1.45664L5.75006 6.99998L0.51539 12.542Z" fill="#323232"/>
</svg>
