<svg width="16" height="16" viewBox="0 0 16 16" fill="none" xmlns="http://www.w3.org/2000/svg">
<path fill-rule="evenodd" clip-rule="evenodd" d="M14.4838 1.50815C14.2437 1.27319 13.8578 1.27531 13.6203 1.51293L11.1774 3.9572C10.2046 3.43632 9.12361 3.15149 8 3.15149C5.18293 3.15149 2.63404 4.94183 1.38547 7.75405C1.31595 7.91063 1.31595 8.08933 1.38547 8.24591C1.94944 9.51616 2.7787 10.5779 3.77815 11.3604L1.51137 13.6284C1.2721 13.8678 1.27428 14.2551 1.5162 14.4918C1.75632 14.7268 2.14219 14.7246 2.37968 14.487L4.82264 12.0428C5.79543 12.5636 6.87638 12.8485 8 12.8485C10.8171 12.8485 13.3659 11.0581 14.6145 8.24591C14.684 8.08933 14.684 7.91063 14.6145 7.75405C14.0506 6.4838 13.2213 5.42203 12.2218 4.63957L14.4886 2.37157C14.7279 2.13218 14.7257 1.74487 14.4838 1.50815ZM10.2732 4.86186C9.56141 4.53773 8.7922 4.36362 8 4.36362C5.7584 4.36362 3.70097 5.7576 2.6078 7.99998C3.10867 9.02739 3.81196 9.8767 4.64264 10.4954L5.90936 9.22802C5.69736 8.86788 5.57575 8.44813 5.57575 7.99998C5.57575 6.66111 6.66112 5.57574 8 5.57574C8.44768 5.57574 8.86702 5.69709 9.22691 5.90869L10.2732 4.86186ZM10.0906 6.77194L11.3573 5.50453C12.188 6.12326 12.8913 6.97257 13.3922 7.99998C12.299 10.2424 10.2416 11.6363 8 11.6363C7.20779 11.6363 6.43858 11.4622 5.72681 11.1381L6.77308 10.0913C7.13297 10.3029 7.55231 10.4242 8 10.4242C9.33887 10.4242 10.4242 9.33885 10.4242 7.99998C10.4242 7.55183 10.3026 7.13208 10.0906 6.77194ZM8.3086 6.8275C8.21007 6.80163 8.10664 6.78786 8 6.78786C7.33056 6.78786 6.78787 7.33054 6.78787 7.99998C6.78787 8.10685 6.80171 8.2105 6.82768 8.30922L8.3086 6.8275ZM7.69139 9.17246L9.17231 7.69074C9.19829 7.78946 9.21212 7.89311 9.21212 7.99998C9.21212 8.66942 8.66943 9.2121 8 9.2121C7.89335 9.2121 7.78992 9.19833 7.69139 9.17246Z" fill="#B5B5BE"/>
</svg>
