<svg width="20" height="20" viewBox="0 0 20 20" fill="none" xmlns="http://www.w3.org/2000/svg">
<path fill-rule="evenodd" clip-rule="evenodd" d="M2 9.45345C2 8.77185 2.28929 8.12228 2.79592 7.66632L8.40604 2.61721C9.32042 1.79426 10.7085 1.79426 11.6229 2.61721L17.233 7.66632C17.7396 8.12228 18.0289 8.77185 18.0289 9.45345V15.5957C18.0289 16.9235 16.9525 18 15.6246 18H13.2202L13.2158 18H6.81315L6.80868 18H4.40434C3.07646 18 2 16.9235 2 15.5957V9.45345Z" fill="#0BB885"/>
<path d="M7.60999 13.5884C7.60999 12.4838 8.50542 11.5884 9.60999 11.5884H10.4187C11.5232 11.5884 12.4187 12.4838 12.4187 13.5884V17.9999H7.60999V13.5884Z" fill="#98FFE0"/>
</svg>
