<svg width="33" height="32" viewBox="0 0 33 32" fill="none" xmlns="http://www.w3.org/2000/svg">
<path fill-rule="evenodd" clip-rule="evenodd" d="M13.3 6.39999C10.7684 6.39999 8.29366 7.1507 6.18871 8.55718C4.08376 9.96366 2.44315 11.9628 1.47435 14.3016C0.505546 16.6405 0.252063 19.2142 0.745954 21.6972C1.23984 24.1801 2.45893 26.4608 4.24904 28.251C6.03915 30.0411 8.31989 31.2602 10.8028 31.754C13.2858 32.2479 15.8595 31.9945 18.1984 31.0257C20.5372 30.0569 22.5363 28.4162 23.9428 26.3113C25.3493 24.2063 26.1 21.7316 26.1 19.2C26.1 18.3163 25.3837 17.6 24.5 17.6H16.5C15.6163 17.6 14.9 16.8836 14.9 16V7.99999C14.9 7.11634 14.1837 6.39999 13.3 6.39999Z" fill="#0BB885"/>
<path d="M19.7003 0C19.2759 0 18.8689 0.168571 18.5689 0.468629C18.2688 0.768687 18.1003 1.17565 18.1003 1.6V12.8C18.1003 13.2243 18.2688 13.6313 18.5689 13.9314C18.8689 14.2314 19.2759 14.4 19.7003 14.4L30.9002 14.4C31.3246 14.4 31.7316 14.2314 32.0316 13.9314C32.3317 13.6313 32.5002 13.2243 32.5002 12.8C32.5002 9.40523 31.1517 6.1495 28.7512 3.74903C26.3507 1.34857 23.095 0 19.7003 0Z" fill="#98FFE0"/>
</svg>
