<svg width="56" height="56" viewBox="0 0 56 56" fill="none" xmlns="http://www.w3.org/2000/svg">
<circle opacity="0.25" cx="28" cy="28" r="22" fill="white"/>
<path d="M52.3151 17.842C53.1551 17.491 53.556 16.523 53.1562 15.7051C51.5865 12.4933 49.4138 9.60703 46.7514 7.20616C43.6804 4.43676 40.034 2.38199 36.0744 1.18948C32.1148 -0.00302925 27.9401 -0.303662 23.8505 0.309182C19.7608 0.922026 15.8577 2.43313 12.4215 4.73392C8.98534 7.0347 6.10147 10.068 3.97709 13.616C1.85272 17.1639 0.540594 21.1384 0.135001 25.2538C-0.270591 29.3691 0.240418 33.5233 1.63131 37.4177C2.83712 40.7938 4.67825 43.9021 7.05004 46.5768C7.65403 47.258 8.70177 47.256 9.34621 46.613C9.99065 45.97 9.98715 44.9297 9.38852 44.2439C7.35778 41.9171 5.77801 39.2263 4.736 36.3088C3.50887 32.8729 3.05803 29.2079 3.41587 25.5771C3.7737 21.9463 4.93134 18.4398 6.80558 15.3096C8.67983 12.1794 11.2242 9.50319 14.2557 7.4733C17.2873 5.44341 20.7309 4.11023 24.339 3.56954C27.9472 3.02885 31.6303 3.29409 35.1237 4.34619C38.6171 5.39829 41.8342 7.21113 44.5436 9.65445C46.8443 11.7292 48.7306 14.2148 50.1084 16.9787C50.5145 17.7934 51.475 18.1929 52.3151 17.842Z" fill="white"/>
</svg>
