<svg width="132" height="35" viewBox="0 0 132 35" fill="none" xmlns="http://www.w3.org/2000/svg">
<path d="M32.16 12.11C32.1601 10.1197 31.5591 8.17573 30.4357 6.53279C29.3123 4.88985 27.7188 3.6245 25.8641 2.9025C24.0094 2.18049 21.9798 2.03549 20.0413 2.48648C18.1027 2.93747 16.3456 3.96343 15 5.42997H2.52002V31.77H28.87V19.46C29.9042 18.535 30.7318 17.4023 31.2987 16.1358C31.8656 14.8693 32.1591 13.4976 32.16 12.11ZM27.09 12.11C27.092 13.0637 26.811 13.9966 26.2826 14.7906C25.7541 15.5845 25.0021 16.2039 24.1215 16.5702C23.2409 16.9366 22.2715 17.0335 21.3358 16.8486C20.4002 16.6638 19.5404 16.2055 18.8653 15.5318C18.1902 14.8581 17.7302 13.9993 17.5434 13.064C17.3566 12.1288 17.4515 11.1591 17.816 10.2778C18.1805 9.39643 18.7983 8.64306 19.5911 8.11299C20.384 7.58292 21.3163 7.29998 22.27 7.29997C23.5466 7.29997 24.7711 7.80642 25.6747 8.70818C26.5784 9.60994 27.0874 10.8334 27.09 12.11ZM23.8 26.7H7.59002V10.5H12.53C12.4346 11.0315 12.3844 11.5701 12.38 12.11C12.3827 14.7322 13.4255 17.2462 15.2797 19.1004C17.1338 20.9545 19.6478 21.9974 22.27 22C22.7827 21.9973 23.2943 21.9538 23.8 21.87V26.7Z" fill="#FF814A"/>
<path d="M44.0376 12.8182V23H41.8849V12.8182H44.0376ZM47.8869 18.5852V23H45.769V15.3636H47.7875V16.7109H47.877C48.046 16.2668 48.3294 15.9155 48.7271 15.657C49.1248 15.3951 49.6071 15.2642 50.1738 15.2642C50.7041 15.2642 51.1665 15.3802 51.5609 15.6122C51.9553 15.8442 52.2619 16.1757 52.4806 16.6065C52.6994 17.0341 52.8088 17.5445 52.8088 18.1378V23H50.6909V18.5156C50.6942 18.0483 50.5749 17.6837 50.3329 17.4219C50.091 17.1567 49.7579 17.0241 49.3336 17.0241C49.0486 17.0241 48.7967 17.0855 48.5779 17.2081C48.3625 17.3307 48.1935 17.5097 48.0708 17.745C47.9515 17.977 47.8902 18.2571 47.8869 18.5852ZM58.5398 15.3636V16.9545H53.9411V15.3636H58.5398ZM54.9851 13.5341H57.103V20.6534C57.103 20.849 57.1328 21.0014 57.1925 21.1108C57.2521 21.2169 57.335 21.2914 57.4411 21.3345C57.5504 21.3776 57.6764 21.3991 57.8189 21.3991C57.9183 21.3991 58.0178 21.3909 58.1172 21.3743C58.2166 21.3544 58.2929 21.3395 58.3459 21.3295L58.679 22.9055C58.5729 22.9387 58.4238 22.9768 58.2315 23.0199C58.0393 23.0663 57.8056 23.0945 57.5305 23.1044C57.0201 23.1243 56.5727 23.0563 56.1882 22.9006C55.8071 22.7448 55.5104 22.5028 55.2983 22.1747C55.0862 21.8466 54.9818 21.4323 54.9851 20.9318V13.5341ZM63.3175 23.1491C62.532 23.1491 61.8558 22.9901 61.2891 22.6719C60.7256 22.3504 60.2914 21.8963 59.9865 21.3097C59.6816 20.7197 59.5291 20.022 59.5291 19.2166C59.5291 18.4311 59.6816 17.7417 59.9865 17.1484C60.2914 16.5552 60.7206 16.0928 61.2741 15.7614C61.831 15.4299 62.4839 15.2642 63.233 15.2642C63.7367 15.2642 64.2057 15.3454 64.6399 15.5078C65.0774 15.6669 65.4586 15.9072 65.7834 16.2287C66.1115 16.5502 66.3667 16.9545 66.549 17.4418C66.7313 17.9257 66.8224 18.4924 66.8224 19.142V19.7237H60.3743V18.4112H64.8288C64.8288 18.1063 64.7625 17.8362 64.63 17.6009C64.4974 17.3655 64.3134 17.1816 64.0781 17.049C63.8461 16.9131 63.576 16.8452 63.2678 16.8452C62.9463 16.8452 62.6612 16.9197 62.4126 17.0689C62.1674 17.2147 61.9751 17.4119 61.8359 17.6605C61.6967 17.9058 61.6255 18.1792 61.6222 18.4808V19.7287C61.6222 20.1065 61.6918 20.433 61.831 20.7081C61.9735 20.9832 62.174 21.1953 62.4325 21.3445C62.6911 21.4936 62.9976 21.5682 63.3523 21.5682C63.5876 21.5682 63.803 21.535 63.9986 21.4688C64.1941 21.4025 64.3615 21.303 64.5007 21.1705C64.6399 21.0379 64.746 20.8755 64.8189 20.6832L66.7777 20.8125C66.6783 21.2831 66.4744 21.6941 66.1662 22.0455C65.8613 22.3935 65.4669 22.6652 64.983 22.8608C64.5024 23.053 63.9472 23.1491 63.3175 23.1491ZM68.2045 23V15.3636H70.2578V16.696H70.3374C70.4766 16.2221 70.7102 15.8641 71.0384 15.6222C71.3665 15.3769 71.7443 15.2543 72.1719 15.2543C72.2779 15.2543 72.3923 15.2609 72.5149 15.2741C72.6375 15.2874 72.7453 15.3056 72.8381 15.3288V17.2081C72.7386 17.1783 72.6011 17.1518 72.4254 17.1286C72.2498 17.1054 72.089 17.0938 71.9432 17.0938C71.6316 17.0938 71.3532 17.1617 71.108 17.2976C70.866 17.4302 70.6738 17.6158 70.5312 17.8544C70.392 18.093 70.3224 18.3681 70.3224 18.6797V23H68.2045ZM78.4585 17.9787V19.6591H73.815V17.9787H78.4585ZM82.4407 23.1442C81.9535 23.1442 81.5193 23.0597 81.1381 22.8906C80.757 22.7183 80.4554 22.4647 80.2333 22.13C80.0146 21.7919 79.9052 21.371 79.9052 20.8672C79.9052 20.4429 79.9831 20.0866 80.1388 19.7983C80.2946 19.5099 80.5067 19.2779 80.7752 19.1023C81.0437 18.9266 81.3486 18.794 81.69 18.7045C82.0347 18.6151 82.396 18.5521 82.7738 18.5156C83.2179 18.4692 83.5759 18.4261 83.8477 18.3864C84.1194 18.3433 84.3166 18.2803 84.4393 18.1974C84.5619 18.1146 84.6232 17.992 84.6232 17.8295V17.7997C84.6232 17.4848 84.5238 17.2412 84.3249 17.0689C84.1294 16.8965 83.851 16.8104 83.4897 16.8104C83.1085 16.8104 82.8053 16.8949 82.5799 17.0639C82.3545 17.2296 82.2054 17.4384 82.1325 17.6903L80.1737 17.5312C80.2731 17.0672 80.4686 16.6662 80.7603 16.3281C81.052 15.9867 81.4281 15.7249 81.8888 15.5426C82.3529 15.357 82.8898 15.2642 83.4996 15.2642C83.9239 15.2642 84.3299 15.3139 84.7177 15.4134C85.1088 15.5128 85.4551 15.6669 85.7567 15.8757C86.0617 16.0845 86.302 16.353 86.4776 16.6811C86.6533 17.0059 86.7411 17.3954 86.7411 17.8494V23H84.7326V21.9411H84.6729C84.5503 22.1797 84.3862 22.3902 84.1808 22.5724C83.9753 22.7514 83.7283 22.8923 83.44 22.995C83.1516 23.0945 82.8185 23.1442 82.4407 23.1442ZM83.0472 21.6825C83.3588 21.6825 83.6339 21.6212 83.8725 21.4986C84.1112 21.3726 84.2984 21.2036 84.4343 20.9915C84.5702 20.7794 84.6381 20.5391 84.6381 20.2706V19.4602C84.5719 19.5033 84.4807 19.5431 84.3647 19.5795C84.252 19.6127 84.1244 19.6442 83.9819 19.674C83.8394 19.7005 83.6969 19.7254 83.5543 19.7486C83.4118 19.7685 83.2826 19.7867 83.1665 19.8033C82.918 19.8397 82.7009 19.8977 82.5153 19.9773C82.3297 20.0568 82.1855 20.1645 82.0827 20.3004C81.98 20.433 81.9286 20.5987 81.9286 20.7976C81.9286 21.0859 82.033 21.3063 82.2418 21.4588C82.454 21.608 82.7224 21.6825 83.0472 21.6825ZM91.8345 23.1491C91.0523 23.1491 90.3795 22.9834 89.8161 22.652C89.2559 22.3172 88.825 21.8532 88.5234 21.2599C88.2251 20.6667 88.076 19.9839 88.076 19.2116C88.076 18.4295 88.2268 17.7434 88.5284 17.1534C88.8333 16.5601 89.2659 16.0978 89.826 15.7663C90.3861 15.4316 91.0523 15.2642 91.8246 15.2642C92.4908 15.2642 93.0741 15.3852 93.5746 15.6271C94.075 15.8691 94.4711 16.2088 94.7628 16.6463C95.0545 17.0838 95.2152 17.5975 95.245 18.1875H93.2464C93.1901 17.8063 93.041 17.4998 92.799 17.2678C92.5604 17.0324 92.2472 16.9148 91.8594 16.9148C91.5312 16.9148 91.2446 17.0043 90.9993 17.1832C90.7573 17.3589 90.5684 17.6158 90.4325 17.9538C90.2966 18.2919 90.2287 18.7012 90.2287 19.1818C90.2287 19.669 90.295 20.0833 90.4276 20.4247C90.5634 20.7661 90.754 21.0263 90.9993 21.2053C91.2446 21.3842 91.5312 21.4737 91.8594 21.4737C92.1013 21.4737 92.3184 21.424 92.5107 21.3246C92.7062 21.2251 92.867 21.081 92.9929 20.892C93.1222 20.6998 93.2067 20.4695 93.2464 20.201H95.245C95.2119 20.7843 95.0528 21.2981 94.7678 21.7422C94.486 22.183 94.0966 22.5277 93.5994 22.7763C93.1023 23.0249 92.514 23.1491 91.8345 23.1491ZM100.663 15.3636V16.9545H96.0641V15.3636H100.663ZM97.1081 13.5341H99.226V20.6534C99.226 20.849 99.2559 21.0014 99.3155 21.1108C99.3752 21.2169 99.458 21.2914 99.5641 21.3345C99.6735 21.3776 99.7994 21.3991 99.9419 21.3991C100.041 21.3991 100.141 21.3909 100.24 21.3743C100.34 21.3544 100.416 21.3395 100.469 21.3295L100.802 22.9055C100.696 22.9387 100.547 22.9768 100.355 23.0199C100.162 23.0663 99.9287 23.0945 99.6536 23.1044C99.1432 23.1243 98.6957 23.0563 98.3113 22.9006C97.9301 22.7448 97.6335 22.5028 97.4213 22.1747C97.2092 21.8466 97.1048 21.4323 97.1081 20.9318V13.5341Z" fill="white"/>
</svg>
